<svg xmlns="http://www.w3.org/2000/svg" xmlns:xlink="http://www.w3.org/1999/xlink" width="142" height="142" viewBox="0 0 142 142">
    <defs>
        <path id="prefix__a" d="M0.051 0.517L137.781 0.517 137.781 130.887 0.051 130.887z"/>
        <path id="prefix__c" d="M12.243 4.475L9.78 0.885 0.374 110.971 72.73 110.971 73.31 1.425 70.956 5.026 68.624 1.531 66.574 4.693 64.046 1.096 62.076 4.693 59.573 1.208 57.696 4.587 55.003 0.991 52.983 4.806 50.417 1.208 48.602 4.587 46.251 1.531 44.101 4.806 41.692 1.096 39.608 4.806 37.023 0.774 34.797 4.693 32.531 1.096 30.635 4.475 28.189 0.774 25.619 4.369 23.802 1.096 21.13 4.256 19.222 1.096 16.846 4.369 14.699 0.446z"/>
        <path id="prefix__f" d="M6.535 3.421L4.609 0.535 2.832 3.421 1.103 0.691 0.525 110.332 13.176 96.888 10.091 3.401 8.41 0.315z"/>
        <path id="prefix__i" d="M4.586 3.284L2.31.39.382 3.401c.232.231 3.084 93.487 3.084 93.487l13.931 13.625L9.862.735l-1.65 2.432L6.355.39l-1.77 2.893z"/>
        <path id="prefix__l" d="M0.525 14.019L27.094 14.019 13.176 0.575z"/>
        <path id="prefix__o" d="M0 0.389L13.844 0.389 13.844 11.241 0 11.241z"/>
        <linearGradient id="prefix__d" x1="68.847%" x2="33.082%" y1="102.514%" y2="3.7%">
            <stop offset="0%" stop-color="#CCC"/>
            <stop offset="100%" stop-color="#F2F2F2"/>
        </linearGradient>
        <linearGradient id="prefix__g" x1="52.068%" x2="47.375%" y1="86.746%" y2="12.33%">
            <stop offset="0%" stop-color="#C1C1C1"/>
            <stop offset="100%" stop-color="#EBEBEB"/>
        </linearGradient>
        <linearGradient id="prefix__j" x1="53.682%" x2="46.841%" y1="91.099%" y2="10.379%">
            <stop offset="0%" stop-color="#CCC"/>
            <stop offset="100%" stop-color="#F2F2F2"/>
        </linearGradient>
        <linearGradient id="prefix__m" x1="61.948%" x2="28.946%" y1="73.823%" y2="43.377%">
            <stop offset="0%" stop-color="#C1C1C1"/>
            <stop offset="100%" stop-color="#EBEBEB"/>
        </linearGradient>
    </defs>
    <g fill="none" fill-rule="evenodd">
        <g transform="translate(3.641 10.672)">
            <mask id="prefix__b" fill="#fff">
                <use xlink:href="#prefix__a"/>
            </mask>
            <path fill="#F2F2F2" d="M34.525 130.887c-43.727 0-40.014-44.508-20.936-63.12C38.456 43.508 49.06 94.67 56.744 28.21c5.118-44.276 86.736-33.764 67.297 19.44-10.373 28.39 16.02 33.82 13.58 52.116-3.327 24.938-27.434 31.122-37.21 31.122H34.524z" mask="url(#prefix__b)"/>
        </g>
        <g transform="translate(19.419 30.428)">
            <mask id="prefix__e" fill="#fff">
                <use xlink:href="#prefix__c"/>
            </mask>
            <path fill="url(#prefix__d)" d="M12.243 4.475L9.78 0.885 0.374 110.971 72.73 110.971 73.31 1.425 70.956 5.026 68.624 1.531 66.574 4.693 64.046 1.096 62.076 4.693 59.573 1.208 57.696 4.587 55.003 0.991 52.983 4.806 50.417 1.208 48.602 4.587 46.251 1.531 44.101 4.806 41.692 1.096 39.608 4.806 37.023 0.774 34.797 4.693 32.531 1.096 30.635 4.475 28.189 0.774 25.619 4.369 23.802 1.096 21.13 4.256 19.222 1.096 16.846 4.369 14.699 0.446z" mask="url(#prefix__e)"/>
        </g>
        <g transform="translate(91.632 31.046)">
            <mask id="prefix__h" fill="#fff">
                <use xlink:href="#prefix__f"/>
            </mask>
            <path fill="url(#prefix__g)" d="M6.535 3.421L4.609 0.535 2.832 3.421 1.103 0.691 0.525 110.332 13.176 96.888 10.091 3.401 8.41 0.315z" mask="url(#prefix__h)"/>
        </g>
        <g transform="translate(101.342 31.046)">
            <mask id="prefix__k" fill="#fff">
                <use xlink:href="#prefix__i"/>
            </mask>
            <path fill="url(#prefix__j)" d="M4.586 3.284L2.31.39.382 3.401c.232.231 3.084 93.487 3.084 93.487l13.931 13.625L9.862.735l-1.65 2.432L6.355.39l-1.77 2.893z" mask="url(#prefix__k)"/>
        </g>
        <g transform="translate(91.632 127.359)">
            <mask id="prefix__n" fill="#fff">
                <use xlink:href="#prefix__l"/>
            </mask>
            <path fill="url(#prefix__m)" d="M0.525 14.019L27.094 14.019 13.176 0.575z" mask="url(#prefix__n)"/>
        </g>
        <g>
            <path fill="#F2F2F2" d="M82.04 85.773c0 10.535-8.393 19.075-18.755 19.075-.7 0-1.387-.04-2.061-.121 9.385-1.042 16.683-9.131 16.683-18.954s-7.298-17.92-16.683-18.96c.674-.082 1.36-.122 2.06-.122 10.363 0 18.756 8.547 18.756 19.082" transform="translate(0 .176)"/>
            <path fill="#FFF" d="M77.906 85.773c0 9.823-7.297 17.912-16.682 18.954-9.384-1.042-16.688-9.131-16.688-18.954s7.304-17.92 16.688-18.96c9.385 1.04 16.682 9.137 16.682 18.96" transform="translate(0 .176)"/>
            <path fill="#E4E4E4" d="M52.913 84.84c-2.216 0-4.02-1.835-4.02-4.09 0-.37.296-.672.662-.672.364 0 .66.301.66.672 0 1.515 1.21 2.746 2.698 2.746 1.489 0 2.7-1.231 2.7-2.746 0-.37.295-.672.66-.672.365 0 .66.301.66.672 0 2.255-1.803 4.09-4.02 4.09M68.816 84.84c-2.217 0-4.02-1.835-4.02-4.09 0-.37.295-.672.66-.672.365 0 .661.301.661.672 0 1.515 1.21 2.746 2.699 2.746 1.488 0 2.698-1.231 2.698-2.746 0-.37.296-.672.661-.672.365 0 .66.301.66.672 0 2.255-1.803 4.09-4.02 4.09M66.489 94.187c-.365 0-.66-.301-.66-.672 0-2.785-2.227-5.05-4.964-5.05-2.737 0-4.963 2.265-4.963 5.05 0 .37-.296.672-.66.672-.366 0-.661-.301-.661-.672 0-3.525 2.818-6.393 6.284-6.393 3.465 0 6.284 2.868 6.284 6.393 0 .37-.295.672-.66.672" transform="translate(0 .176)"/>
            <g transform="translate(0 .176) translate(0 14.2)">
                <mask id="prefix__p" fill="#fff">
                    <use xlink:href="#prefix__o"/>
                </mask>
                <path fill="#EAEAEA" d="M12.667 10.888c-.77.47-1.765.486-2.569-.043L1.11 4.933c-1.126-.74-1.45-2.27-.72-3.415C1.117.373 2.62.045 3.745.785l8.989 5.912c1.126.74 1.448 2.27.72 3.415-.208.328-.48.589-.787.776" mask="url(#prefix__p)"/>
            </g>
            <path fill="#EAEAEA" d="M17.723 28.415c-.77.47-1.767.484-2.57-.046l-.096-.062c-1.125-.742-1.445-2.272-.716-3.416.73-1.144 2.232-1.47 3.357-.728l.094.062c1.126.742 1.447 2.272.718 3.416-.209.326-.48.586-.787.774M24.84 15.504c-1.18.3-2.42-.342-2.858-1.528L18.216 3.783c-.472-1.277.163-2.7 1.417-3.18 1.263-.486 2.656.166 3.127 1.442l3.766 10.193c.473 1.277-.162 2.7-1.418 3.18-.088.035-.179.063-.268.086M26.959 21.238c-1.185.301-2.428-.346-2.862-1.539l-.039-.108c-.467-1.278.175-2.7 1.431-3.174 1.262-.475 2.655.179 3.12 1.457l.04.109c.466 1.279-.176 2.7-1.432 3.173-.086.032-.172.06-.258.082" transform="translate(0 .176)"/>
            <path fill="#FFF" d="M101.744 33.063c-.235 0-.474-.035-.71-.109-1.282-.399-2.004-1.78-1.612-3.084l3.13-10.413c.393-1.304 1.746-2.04 3.032-1.64 1.281.4 2.003 1.78 1.61 3.084l-3.13 10.414c-.319 1.064-1.28 1.748-2.32 1.748M99.984 38.92c-.236 0-.474-.035-.712-.108-1.281-.399-2.003-1.78-1.61-3.084l.033-.11c.392-1.304 1.747-2.04 3.032-1.639 1.282.399 2.003 1.78 1.61 3.084l-.033.11c-.32 1.064-1.28 1.748-2.32 1.748M111.435 40.124c-.588 0-1.178-.217-1.645-.654-.985-.925-1.047-2.488-.138-3.49l7.258-8.004c.909-1.002 2.445-1.065 3.43-.14.985.925 1.046 2.487.137 3.49l-7.258 8.003c-.478.528-1.13.795-1.784.795M107.353 44.627c-.587 0-1.176-.215-1.641-.651-.988-.922-1.053-2.484-.146-3.489l.076-.084c.906-1.006 2.443-1.072 3.43-.15.987.923 1.052 2.485.146 3.49l-.077.084c-.478.53-1.132.8-1.788.8" transform="translate(0 .176)"/>
        </g>
    </g>
</svg>
